<svg width="24" height="24" viewBox="0 0 24 24" fill="none" xmlns="http://www.w3.org/2000/svg">
<path d="M3.75 4.5C3.15326 4.5 2.58097 4.73705 2.15901 5.15901C1.73705 5.58097 1.5 6.15326 1.5 6.75V7.9395C1.53889 7.95331 1.57695 7.96934 1.614 7.9875L11.511 12.765C11.82 12.915 12.18 12.915 12.489 12.765L22.386 7.9875C22.4231 7.96944 22.4612 7.95341 22.5 7.9395V6.75C22.5 6.15326 22.2629 5.58097 21.841 5.15901C21.419 4.73705 20.8467 4.5 20.25 4.5H3.75Z" fill="#E0E0E0"/>
<path d="M22.5 10.4309L13.467 14.7899C13.0095 15.0107 12.508 15.1254 12 15.1254C11.492 15.1254 10.9905 15.0107 10.533 14.7899L1.5 10.4309V17.2499C1.5 17.8466 1.73705 18.4189 2.15901 18.8409C2.58097 19.2629 3.15326 19.4999 3.75 19.4999H20.25C20.8467 19.4999 21.419 19.2629 21.841 18.8409C22.2629 18.4189 22.5 17.8466 22.5 17.2499V10.4309Z" fill="#E0E0E0"/>
</svg>
